<?xml version="1.0" standalone="no"?>
<!DOCTYPE svg PUBLIC "-//W3C//DTD SVG 20010904//EN"
 "http://www.w3.org/TR/2001/REC-SVG-20010904/DTD/svg10.dtd">
<svg version="1.0" xmlns="http://www.w3.org/2000/svg"
 width="500.000000pt" height="500.000000pt" viewBox="0 0 500.000000 500.000000"
 preserveAspectRatio="xMidYMid meet">
<metadata>
Created by potrace 1.11, written by Peter Selinger 2001-2013
</metadata>
<g transform="translate(0.000000,500.000000) scale(0.100000,-0.100000)"
fill="#000000" stroke="none">
<path d="M1399 4641 c-91 -29 -157 -71 -222 -141 -52 -56 -136 -195 -537 -890
-261 -453 -487 -846 -502 -874 -61 -116 -73 -276 -29 -400 11 -33 242 -444
513 -914 538 -933 552 -954 675 -1020 124 -65 61 -62 1203 -62 1142 0 1079 -3
1203 62 123 66 137 87 677 1023 272 472 503 884 514 914 29 82 28 244 -2 325
-12 33 -243 444 -514 914 -538 933 -552 954 -675 1020 -125 65 -61 62 -1207
61 -969 0 -1045 -1 -1097 -18z m1000 -1364 c41 -21 66 -64 65 -111 -1 -51 41
12 -441 -664 -205 -288 -373 -525 -373 -528 0 -2 161 -4 358 -4 196 0 375 -5
397 -10 57 -13 85 -49 85 -109 0 -52 -22 -84 -67 -102 -14 -5 -237 -9 -524 -9
-548 0 -553 0 -583 59 -18 35 -20 78 -6 117 6 14 190 278 410 585 220 307 400
561 400 564 0 3 -167 5 -370 5 -420 0 -420 0 -441 70 -16 54 -2 99 40 127 l34
23 496 0 c374 0 502 -3 520 -13z m519 -482 c28 -30 32 -42 32 -87 l0 -53 46
52 c32 37 67 63 122 90 75 38 77 38 196 38 110 0 126 -2 177 -26 99 -47 155
-120 184 -241 22 -93 22 -736 0 -778 -40 -78 -186 -81 -236 -6 -11 17 -15 91
-19 361 -5 332 -6 341 -29 388 -31 64 -78 88 -172 88 -85 0 -141 -23 -191 -79
-62 -69 -68 -106 -68 -435 0 -254 -2 -292 -17 -318 -47 -79 -197 -79 -238 1
-13 25 -15 98 -15 499 l0 469 26 31 c51 61 147 64 202 6z"/>
</g>
</svg>
